<svg xmlns="http://www.w3.org/2000/svg" width="16" height="15" viewBox="0 0 16 15" fill="none">
  <path d="M10.2168 0.695801H3.97281C3.39697 0.695801 2.90438 1.04269 2.69625 1.54221L0.601035 6.43336C0.538595 6.59293 0.503906 6.75944 0.503906 6.93982V8.32738C0.503906 9.09054 1.12831 9.71494 1.89147 9.71494H6.26922L5.61013 12.8855L5.58931 13.1075C5.58931 13.392 5.70726 13.6556 5.89458 13.8429L6.62998 14.5714L11.202 9.99939C11.4518 9.74963 11.6044 9.40274 11.6044 9.02116V2.08336C11.6044 1.3202 10.98 0.695801 10.2168 0.695801ZM10.2168 9.02116L7.20582 12.0322L8.13549 8.32738H1.89147V6.93982L3.97281 2.08336H10.2168V9.02116ZM12.9919 0.695801H15.7671V9.02116H12.9919V0.695801Z" fill="black" fill-opacity="0.7"/>
</svg>