<svg width="35" height="42" viewBox="0 0 35 42" fill="none" xmlns="http://www.w3.org/2000/svg">
<path d="M16.5789 42V35.3068C7.35 34.8234 0 27.089 0 17.6627C0 7.92032 7.84737 0 17.5 0C27.1526 0 35 7.92032 35 17.6627C35 26.8659 28.6632 36.1248 19.2132 40.7171L16.5789 42ZM17.5 3.71846C9.87368 3.71846 3.68421 9.96547 3.68421 17.6627C3.68421 25.3599 9.87368 31.6069 17.5 31.6069H20.2632V35.8831C26.9684 31.6069 31.3158 24.579 31.3158 17.6627C31.3158 9.96547 25.1263 3.71846 17.5 3.71846ZM15.6579 25.0996H19.3421V28.8181H15.6579V25.0996ZM19.3421 22.3108H15.6579C15.6579 16.2683 21.1842 16.7331 21.1842 13.0146C21.1842 10.9695 19.5263 9.29615 17.5 9.29615C15.4737 9.29615 13.8158 10.9695 13.8158 13.0146H10.1316C10.1316 8.90571 13.4289 5.57769 17.5 5.57769C21.5711 5.57769 24.8684 8.90571 24.8684 13.0146C24.8684 17.6627 19.3421 18.1275 19.3421 22.3108Z" fill="black" fill-opacity="0.7"/>
</svg>
