<svg width="65" height="65" viewBox="0 0 65 65" fill="none" xmlns="http://www.w3.org/2000/svg">
<circle cx="32.5" cy="32.5" r="32.5" fill="url(#paint0_linear_1142_15813)"/>
<path d="M33.6552 32.7772L24.1217 41.678C23.6619 42.1073 22.9165 42.1073 22.4568 41.678L21.3448 40.6399C20.8858 40.2114 20.8849 39.5168 21.3429 39.0873L28.8983 32L21.3429 24.9127C20.8849 24.4832 20.8858 23.7886 21.3448 23.3601L22.4568 22.322C22.9165 21.8927 23.662 21.8927 24.1217 22.322L33.6552 31.2227C34.1149 31.652 34.1149 32.348 33.6552 32.7772Z" fill="white"/>
<path d="M44.6552 32.7772L35.1217 41.678C34.6619 42.1073 33.9165 42.1073 33.4568 41.678L32.3448 40.6399C31.8858 40.2114 31.8849 39.5168 32.3429 39.0873L39.8983 32L32.3429 24.9127C31.8849 24.4832 31.8858 23.7886 32.3448 23.3601L33.4568 22.322C33.9165 21.8927 34.662 21.8927 35.1217 22.322L44.6552 31.2227C45.1149 31.652 45.1149 32.348 44.6552 32.7772Z" fill="white"/>
<defs>
<linearGradient id="paint0_linear_1142_15813" x1="17.0833" y1="3.33333" x2="50.4167" y2="60" gradientUnits="userSpaceOnUse">
<stop offset="0.193293" stop-color="#CB54B8"/>
<stop offset="1" stop-color="#CACD1C" stop-opacity="0.8"/>
</linearGradient>
</defs>
</svg>
