<svg width="35" height="35" viewBox="0 0 35 35" fill="none" xmlns="http://www.w3.org/2000/svg">
<path d="M19.4444 8.75H29.1667V12.6389H19.4444V8.75ZM19.4444 22.3611H29.1667V26.25H19.4444V22.3611ZM31.1111 0H3.88889C1.75 0 0 1.75 0 3.88889V31.1111C0 33.25 1.75 35 3.88889 35H31.1111C33.25 35 35 33.25 35 31.1111V3.88889C35 1.75 33.25 0 31.1111 0ZM31.1111 31.1111H3.88889V3.88889H31.1111V31.1111ZM15.5556 5.83333H5.83333V15.5556H15.5556V5.83333ZM13.6111 13.6111H7.77778V7.77778H13.6111V13.6111ZM15.5556 19.4444H5.83333V29.1667H15.5556V19.4444ZM13.6111 27.2222H7.77778V21.3889H13.6111V27.2222Z" fill="black" fill-opacity="0.7"/>
</svg>
