<svg width="18" height="18" class="level-icon" viewBox="0 0 18 18" fill="none" xmlns="http://www.w3.org/2000/svg">
<circle cx="9" cy="9" r="9" fill="url(#paint0_linear_1142_15098)"/>
<path d="M9.13476 4.98438C6.9947 4.98438 5.26172 6.72124 5.26172 8.8613C5.26172 11.0014 6.9947 12.7382 9.13476 12.7382C11.2787 12.7382 13.0156 11.0014 13.0156 8.8613C13.0156 6.72124 11.2787 4.98438 9.13476 4.98438ZM12.0347 7.76025L10.0924 7.59354L9.31698 5.76751C10.5615 5.84118 11.6082 6.64757 12.0347 7.76025ZM10.0691 10.1872L9.13864 9.62893L8.21206 10.1872L8.4563 9.13268L7.63827 8.42321L8.71606 8.33016L9.13864 7.33379L9.56123 8.32628L10.639 8.41933L9.82098 9.12881L10.0691 10.1872ZM8.9603 5.76751L8.18492 7.59742L6.2387 7.76413C6.66516 6.64758 7.71193 5.8373 8.9603 5.76751ZM6.0371 8.8613C6.0371 8.61318 6.06812 8.37281 6.12627 8.14019L7.59563 9.41182L7.16529 11.2534C6.4752 10.6835 6.0371 9.82278 6.0371 8.8613ZM7.52584 11.5054L9.13864 10.5323L10.7514 11.5015C10.2785 11.7923 9.72793 11.9628 9.13476 11.9628C8.54547 11.9628 7.99495 11.7923 7.52584 11.5054ZM11.112 11.2534L10.6817 9.41182L12.151 8.14019C12.2053 8.36893 12.2402 8.61318 12.2402 8.8613C12.2402 9.82278 11.7982 10.6835 11.112 11.2534Z" fill="white"/>
<defs>
<linearGradient id="paint0_linear_1142_15098" x1="4.73077" y1="0.923077" x2="13.9615" y2="16.6154" gradientUnits="userSpaceOnUse">
<stop offset="0.193293" stop-color="#D97933"/>
<stop offset="0.771875" stop-color="#D6B62F" stop-opacity="0.856557"/>
<stop offset="1" stop-color="#D4CE2E" stop-opacity="0.8"/>
</linearGradient>
</defs>
</svg>
