<svg width="65" height="65" viewBox="0 0 65 65" fill="none" xmlns="http://www.w3.org/2000/svg">
<circle cx="32.5" cy="32.5" r="32.5" fill="url(#paint0_linear_1142_15841)"/>
<path d="M32.986 18C25.258 18 19 24.272 19 32C19 39.728 25.258 46 32.986 46C40.728 46 47 39.728 47 32C47 24.272 40.728 18 32.986 18ZM43.458 28.024L36.444 27.422L33.644 20.828C38.138 21.094 41.918 24.006 43.458 28.024ZM36.36 36.788L33 34.772L29.654 36.788L30.536 32.98L27.582 30.418L31.474 30.082L33 26.484L34.526 30.068L38.418 30.404L35.464 32.966L36.36 36.788ZM32.356 20.828L29.556 27.436L22.528 28.038C24.068 24.006 27.848 21.08 32.356 20.828ZM21.8 32C21.8 31.104 21.912 30.236 22.122 29.396L27.428 33.988L25.874 40.638C23.382 38.58 21.8 35.472 21.8 32ZM27.176 41.548L33 38.034L38.824 41.534C37.116 42.584 35.128 43.2 32.986 43.2C30.858 43.2 28.87 42.584 27.176 41.548ZM40.126 40.638L38.572 33.988L43.878 29.396C44.074 30.222 44.2 31.104 44.2 32C44.2 35.472 42.604 38.58 40.126 40.638Z" fill="white"/>
<defs>
<linearGradient id="paint0_linear_1142_15841" x1="17.0833" y1="3.33333" x2="50.4167" y2="60" gradientUnits="userSpaceOnUse">
<stop offset="0.193293" stop-color="#D97933"/>
<stop offset="0.771875" stop-color="#D6B62F" stop-opacity="0.856557"/>
<stop offset="1" stop-color="#D4CE2E" stop-opacity="0.8"/>
</linearGradient>
</defs>
</svg>
