<svg width="65" height="65" viewBox="0 0 65 65" fill="none" xmlns="http://www.w3.org/2000/svg">
<circle cx="32.5" cy="32.5" r="32.5" fill="url(#paint0_linear_1142_15826)"/>
<path d="M29.6552 32.7772L20.1217 41.678C19.6619 42.1073 18.9165 42.1073 18.4568 41.678L17.3448 40.6399C16.8858 40.2114 16.8849 39.5168 17.3429 39.0873L24.8983 32L17.3429 24.9127C16.8849 24.4832 16.8858 23.7886 17.3448 23.3601L18.4568 22.322C18.9165 21.8927 19.662 21.8927 20.1217 22.322L29.6552 31.2227C30.1149 31.652 30.1149 32.348 29.6552 32.7772Z" fill="white"/>
<path d="M38.6552 32.7772L29.1217 41.678C28.6619 42.1073 27.9165 42.1073 27.4568 41.678L26.3448 40.6399C25.8858 40.2114 25.8849 39.5168 26.3429 39.0873L33.8983 32L26.3429 24.9127C25.8849 24.4832 25.8858 23.7886 26.3448 23.3601L27.4568 22.322C27.9165 21.8927 28.662 21.8927 29.1217 22.322L38.6552 31.2227C39.1149 31.652 39.1149 32.348 38.6552 32.7772Z" fill="white"/>
<path d="M47.6552 32.7772L38.1217 41.678C37.6619 42.1073 36.9165 42.1073 36.4568 41.678L35.3448 40.6399C34.8858 40.2114 34.8849 39.5168 35.3429 39.0873L42.8983 32L35.3429 24.9127C34.8849 24.4832 34.8858 23.7886 35.3448 23.3601L36.4568 22.322C36.9165 21.8927 37.662 21.8927 38.1217 22.322L47.6552 31.2227C48.1149 31.652 48.1149 32.348 47.6552 32.7772Z" fill="white"/>
<defs>
<linearGradient id="paint0_linear_1142_15826" x1="17.0833" y1="3.33333" x2="50.4167" y2="60" gradientUnits="userSpaceOnUse">
<stop offset="0.193293" stop-color="#85C454"/>
<stop offset="1" stop-color="#2ACD1C" stop-opacity="0.8"/>
</linearGradient>
</defs>
</svg>
