<svg width="29" height="35" viewBox="0 0 29 35" fill="none" xmlns="http://www.w3.org/2000/svg">
<path d="M25.7778 20.6818V27.0455H22.5556V20.6818H25.7778ZM6.44444 20.6818V27.0455H4.83333C3.94722 27.0455 3.22222 26.3295 3.22222 25.4545V20.6818H6.44444ZM14.5 0C6.49278 0 0 6.41136 0 14.3182V25.4545C0 28.0955 2.15889 30.2273 4.83333 30.2273H9.66667V17.5H3.22222V14.3182C3.22222 8.16136 8.265 3.18182 14.5 3.18182C20.735 3.18182 25.7778 8.16136 25.7778 14.3182V17.5H19.3333V30.2273H25.7778V31.8182H14.5V35H24.1667C26.8411 35 29 32.8682 29 30.2273V14.3182C29 6.41136 22.5072 0 14.5 0Z" fill="black" fill-opacity="0.7"/>
</svg>
