<svg xmlns="http://www.w3.org/2000/svg" width="16" height="15" viewBox="0 0 16 15" fill="none">
  <path d="M5.55024 14.5714H11.7943C12.3701 14.5714 12.8627 14.2245 13.0708 13.725L15.166 8.83384C15.2285 8.67427 15.2632 8.50776 15.2632 8.32738V6.93982C15.2632 6.17666 14.6388 5.55226 13.8756 5.55226H9.49785L10.1569 2.38169L10.1778 2.15968C10.1778 1.87523 10.0598 1.61159 9.87249 1.42427L9.13708 0.695801L4.56507 5.26781C4.31531 5.51757 4.16268 5.86446 4.16268 6.24604V13.1838C4.16268 13.947 4.78708 14.5714 5.55024 14.5714ZM5.55024 6.24604L8.56124 3.23504L7.63158 6.93982H13.8756V8.32738L11.7943 13.1838H5.55024V6.24604ZM0 6.24604H2.77512V14.5714H0V6.24604Z" fill="black" fill-opacity="0.7"/>
</svg>