<svg width="336" height="56" viewBox="0 0 336 56" fill="none" xmlns="http://www.w3.org/2000/svg">
<path d="M24.933 20.5685L26.0572 19.1888L24.7843 18.1516L23.6481 19.337L24.933 20.5685ZM39.5302 32.4625L38.4059 33.8422L39.6521 34.8576L40.7887 33.721L39.5302 32.4625ZM61.3135 12.459C61.3135 11.476 60.5166 10.6792 59.5337 10.6792L43.5158 10.6792C42.5329 10.6792 41.736 11.476 41.736 12.459C41.736 13.4419 42.5329 14.2388 43.5158 14.2388L57.7539 14.2388L57.7539 28.4769C57.7539 29.4598 58.5508 30.2567 59.5337 30.2567C60.5166 30.2567 61.3135 29.4598 61.3135 28.4769V12.459ZM3.28487 45.7263L26.2179 21.8001L23.6481 19.337L0.715128 43.2633L3.28487 45.7263ZM23.8088 21.9483L38.4059 33.8422L40.6544 31.0828L26.0572 19.1888L23.8088 21.9483ZM40.7887 33.721L60.7922 13.7175L58.2752 11.2005L38.2717 31.204L40.7887 33.721Z" fill="#2747DD"/>
<path d="M84.1498 45V12.6082H90.3505L104.14 35.4676H100.855L114.413 12.6082H120.567L120.66 45H113.626L113.58 23.3901H114.876L104.048 41.5757H100.67L89.6101 23.3901H91.1834V45H84.1498ZM141.07 45.3702C138.417 45.3702 136.057 44.8149 133.99 43.7043C131.954 42.5938 130.335 41.0821 129.132 39.1695C127.959 37.226 127.373 35.0203 127.373 32.5523C127.373 30.0535 127.959 27.8478 129.132 25.9351C130.335 23.9916 131.954 22.48 133.99 21.4003C136.057 20.2897 138.417 19.7344 141.07 19.7344C143.693 19.7344 146.037 20.2897 148.104 21.4003C150.171 22.48 151.79 23.9762 152.963 25.8889C154.135 27.8015 154.721 30.0227 154.721 32.5523C154.721 35.0203 154.135 37.226 152.963 39.1695C151.79 41.0821 150.171 42.5938 148.104 43.7043C146.037 44.8149 143.693 45.3702 141.07 45.3702ZM141.07 39.4471C142.273 39.4471 143.353 39.1695 144.31 38.6142C145.266 38.0589 146.022 37.2723 146.577 36.2542C147.132 35.2053 147.41 33.9714 147.41 32.5523C147.41 31.1024 147.132 29.8684 146.577 28.8504C146.022 27.8324 145.266 27.0457 144.31 26.4904C143.353 25.9351 142.273 25.6575 141.07 25.6575C139.867 25.6575 138.788 25.9351 137.831 26.4904C136.875 27.0457 136.104 27.8324 135.517 28.8504C134.962 29.8684 134.685 31.1024 134.685 32.5523C134.685 33.9714 134.962 35.2053 135.517 36.2542C136.104 37.2723 136.875 38.0589 137.831 38.6142C138.788 39.1695 139.867 39.4471 141.07 39.4471ZM176.066 19.7344C178.04 19.7344 179.799 20.1355 181.341 20.9375C182.915 21.7088 184.149 22.9119 185.043 24.5469C185.938 26.1511 186.385 28.218 186.385 30.7476V45H179.166V31.8582C179.166 29.853 178.719 28.3722 177.825 27.4159C176.961 26.4596 175.727 25.9814 174.123 25.9814C172.981 25.9814 171.948 26.2282 171.022 26.7218C170.128 27.1845 169.418 27.9095 168.894 28.8967C168.4 29.8838 168.153 31.1487 168.153 32.6911V45H160.935V20.1046H167.829V26.9994L166.534 24.9171C167.428 23.2512 168.709 21.971 170.374 21.0764C172.04 20.1817 173.938 19.7344 176.066 19.7344ZM206.853 45.3702C204.015 45.3702 201.516 44.8149 199.356 43.7043C197.228 42.5938 195.577 41.0821 194.405 39.1695C193.233 37.226 192.647 35.0203 192.647 32.5523C192.647 30.0535 193.217 27.8478 194.359 25.9351C195.531 23.9916 197.12 22.48 199.125 21.4003C201.13 20.2897 203.398 19.7344 205.927 19.7344C208.364 19.7344 210.555 20.2589 212.498 21.3077C214.473 22.3258 216.03 23.8065 217.172 25.75C218.313 27.6627 218.884 29.961 218.884 32.6449C218.884 32.9225 218.869 33.2464 218.838 33.6166C218.807 33.956 218.776 34.2799 218.745 34.5884H198.523V30.3774H214.951L212.174 31.6268C212.174 30.3312 211.912 29.2052 211.388 28.2488C210.863 27.2925 210.138 26.5521 209.213 26.0277C208.287 25.4724 207.208 25.1948 205.974 25.1948C204.74 25.1948 203.644 25.4724 202.688 26.0277C201.763 26.5521 201.038 27.3079 200.513 28.2951C199.989 29.2514 199.727 30.3929 199.727 31.7194V32.83C199.727 34.1873 200.02 35.3904 200.606 36.4393C201.223 37.4573 202.071 38.244 203.151 38.7993C204.261 39.3237 205.557 39.5859 207.038 39.5859C208.364 39.5859 209.521 39.3854 210.508 38.9844C211.526 38.5833 212.452 37.9818 213.285 37.1797L217.126 41.3444C215.984 42.64 214.55 43.6426 212.822 44.3522C211.095 45.0308 209.105 45.3702 206.853 45.3702ZM227.773 54.3473C226.477 54.3473 225.197 54.1468 223.932 53.7458C222.667 53.3447 221.634 52.7894 220.832 52.0799L223.469 46.9435C224.025 47.4371 224.657 47.8227 225.367 48.1004C226.107 48.378 226.832 48.5168 227.542 48.5168C228.56 48.5168 229.362 48.27 229.948 47.7764C230.565 47.3137 231.12 46.527 231.614 45.4165L232.909 42.3624L233.465 41.5757L242.395 20.1046H249.337L238.092 46.527C237.29 48.5322 236.364 50.1056 235.316 51.247C234.298 52.3884 233.156 53.1905 231.891 53.6532C230.657 54.116 229.285 54.3473 227.773 54.3473ZM232.03 45.9718L220.924 20.1046H228.374L236.981 40.9279L232.03 45.9718ZM256.184 54.3473C254.889 54.3473 253.608 54.1468 252.344 53.7458C251.079 53.3447 250.045 52.7894 249.243 52.0799L251.881 46.9435C252.436 47.4371 253.069 47.8227 253.778 48.1004C254.519 48.378 255.243 48.5168 255.953 48.5168C256.971 48.5168 257.773 48.27 258.359 47.7764C258.976 47.3137 259.532 46.527 260.025 45.4165L261.321 42.3624L261.876 41.5757L270.807 20.1046H277.748L266.503 46.527C265.701 48.5322 264.776 50.1056 263.727 51.247C262.709 52.3884 261.568 53.1905 260.303 53.6532C259.069 54.116 257.696 54.3473 256.184 54.3473ZM260.442 45.9718L249.336 20.1046H256.786L265.393 40.9279L260.442 45.9718ZM283.321 45.3702C282.087 45.3702 281.023 44.9537 280.128 44.1208C279.264 43.257 278.832 42.1619 278.832 40.8353C278.832 39.5088 279.264 38.4445 280.128 37.6424C281.023 36.8095 282.087 36.393 283.321 36.393C284.586 36.393 285.65 36.8095 286.514 37.6424C287.377 38.4445 287.809 39.5088 287.809 40.8353C287.809 42.1619 287.377 43.257 286.514 44.1208C285.65 44.9537 284.586 45.3702 283.321 45.3702ZM309.812 45V40.1412L309.349 39.0769V30.3774C309.349 28.835 308.871 27.6318 307.915 26.7681C306.989 25.9043 305.555 25.4724 303.611 25.4724C302.285 25.4724 300.974 25.6883 299.678 26.1202C298.413 26.5213 297.333 27.0766 296.439 27.7861L293.847 22.7422C295.205 21.7859 296.84 21.0455 298.752 20.5211C300.665 19.9966 302.609 19.7344 304.583 19.7344C308.377 19.7344 311.324 20.6291 313.421 22.4183C315.519 24.2076 316.568 26.9994 316.568 30.7939V45H309.812ZM302.223 45.3702C300.279 45.3702 298.614 45.0463 297.225 44.3984C295.837 43.7198 294.773 42.8097 294.032 41.6683C293.292 40.5269 292.922 39.2466 292.922 37.8275C292.922 36.3468 293.277 35.0511 293.986 33.9405C294.727 32.83 295.883 31.9662 297.457 31.3492C299.03 30.7014 301.082 30.3774 303.611 30.3774H310.228V34.5884H304.398C302.701 34.5884 301.529 34.866 300.881 35.4213C300.264 35.9766 299.956 36.6707 299.956 37.5036C299.956 38.4291 300.31 39.1695 301.02 39.7248C301.76 40.2492 302.763 40.5114 304.028 40.5114C305.231 40.5114 306.311 40.2338 307.267 39.6785C308.223 39.0924 308.917 38.244 309.349 37.1334L310.46 40.4652C309.935 42.0693 308.979 43.2879 307.591 44.1208C306.203 44.9537 304.413 45.3702 302.223 45.3702ZM324.489 45V20.1046H331.708V45H324.489ZM328.099 16.6341C326.772 16.6341 325.693 16.2485 324.86 15.4772C324.027 14.706 323.61 13.7497 323.61 12.6082C323.61 11.4668 324.027 10.5105 324.86 9.73926C325.693 8.96802 326.772 8.58241 328.099 8.58241C329.425 8.58241 330.505 8.9526 331.338 9.69298C332.171 10.4025 332.587 11.328 332.587 12.4694C332.587 13.6725 332.171 14.6751 331.338 15.4772C330.536 16.2485 329.456 16.6341 328.099 16.6341Z" fill="#2747DD"/>
</svg>
