<svg width="62" height="36" viewBox="0 0 62 36" fill="none" xmlns="http://www.w3.org/2000/svg">
<path d="M24.933 10.5685L26.0572 9.18878L24.7843 8.15159L23.6481 9.33699L24.933 10.5685ZM39.5302 22.4625L38.4059 23.8422L39.6521 24.8576L40.7887 23.721L39.5302 22.4625ZM61.3135 2.45898C61.3135 1.47605 60.5166 0.679217 59.5337 0.679217L43.5158 0.679219C42.5329 0.679219 41.736 1.47605 41.736 2.45899C41.736 3.44192 42.5329 4.23875 43.5158 4.23875L57.7539 4.23875L57.7539 18.4769C57.7539 19.4598 58.5508 20.2567 59.5337 20.2567C60.5166 20.2567 61.3135 19.4598 61.3135 18.4769V2.45898ZM3.28487 35.7263L26.2179 11.8001L23.6481 9.33699L0.715128 33.2633L3.28487 35.7263ZM23.8088 11.9483L38.4059 23.8422L40.6544 21.0828L26.0572 9.18878L23.8088 11.9483ZM40.7887 23.721L60.7922 3.71747L58.2752 1.2005L38.2717 21.204L40.7887 23.721Z" fill="#2747DD"/>
</svg>
